<?xml version="1.0" encoding="UTF-8"?>
<svg width="146px" height="27px" viewBox="0 0 146 27" version="1.1" xmlns="http://www.w3.org/2000/svg" xmlns:xlink="http://www.w3.org/1999/xlink">
    <!-- Generator: Sketch 39.1 (31720) - http://www.bohemiancoding.com/sketch -->
    <title>logo</title>
    <desc>Created with Sketch.</desc>
    <defs></defs>
    <g id="Symbols" stroke="none" stroke-width="1" fill="none" fill-rule="evenodd">
        <g id="Cabecera-corporativa" transform="translate(-1264.000000, -16.000000)" fill="#000000">
            <g id="logo">
                <g transform="translate(1264.000000, 16.000000)">
                    <polygon id="Fill-58" points="27.0708676 26.6831432 27.5341919 26.6831432 27.5341919 0.674207933 27.0708676 0.674207933"></polygon>
                    <polygon id="Fill-59" points="52.3462647 3.85794806 54.8559384 3.85794806 54.8559384 22.6618362 52.158478 22.6618362 52.158478 8.02993971 46.3950037 15.2983589 45.898334 15.2983589 40.068169 8.02993971 40.068169 22.6618362 37.3829937 22.6618362 37.3829937 3.85794806 39.9242577 3.85794806 46.1545664 11.5805334"></polygon>
                    <path d="M66.2554728,3.75039165 L68.1421156,3.75039165 L76.5486448,22.6616601 L73.8002889,22.6616601 L71.3029003,17.0902029 L63.303535,17.0902029 L60.9605879,22.6616601 L58.2034569,22.6616601 L66.2554728,3.75039165 Z M70.1989949,14.692628 L67.1733464,7.88365595 L64.370585,14.692628 L70.1989949,14.692628 Z" id="Fill-60"></path>
                    <path d="M80.0023418,22.6350791 L80.0023418,3.85759599 L86.3221564,3.85759599 C88.8721954,3.85759599 90.8904644,4.24134881 92.3752084,5.00885445 C93.8599524,5.77636008 95.0428335,6.9047342 95.9185868,8.39397678 C96.79434,9.88321937 97.2330942,11.5080077 97.2330942,13.2665814 C97.2330942,14.5234599 96.9909019,15.725768 96.5082723,16.8735058 C96.0256428,18.0230039 95.3376763,19.0334357 94.4408629,19.9030407 C93.5300093,20.800811 92.4682243,21.4785396 91.2607729,21.9362265 C90.5552562,22.2125989 89.9059001,22.3991943 89.3144596,22.4942524 C88.726529,22.5875501 87.5962984,22.6350791 85.9325427,22.6350791 L80.0023418,22.6350791 Z M86.0413537,6.25341061 L82.6857621,6.25341061 L82.6857621,20.2392645 L86.1220845,20.2392645 C87.4629171,20.2392645 88.5071519,20.1477271 89.2477689,19.962892 C89.9918959,19.7798173 90.6096618,19.5456929 91.1063314,19.2622791 C91.6047561,18.9806256 92.0575504,18.6320795 92.4682243,18.2201613 C93.7915067,16.8735058 94.456658,15.1730231 94.456658,13.1187133 C94.456658,11.0996102 93.7757116,9.45369787 92.4173288,8.17921603 C91.9153941,7.70392585 91.3397486,7.31313169 90.6903925,7.00683357 C90.0410364,6.70229578 89.4267806,6.5016177 88.8458701,6.40127866 C88.2649597,6.30269996 87.3295359,6.25341061 86.0413537,6.25341061 L86.0413537,6.25341061 Z" id="Fill-61"></path>
                    <path d="M102.043945,22.6625403 L102.043945,3.85865219 L106.738615,3.85865219 C108.637543,3.85865219 110.141592,4.32866138 111.254272,5.27220042 C112.368708,6.21397912 112.926803,7.48846096 112.926803,9.09388559 C112.926803,10.1888134 112.65302,11.1358731 112.108965,11.9350647 C111.5614,12.732496 110.778663,13.3292493 109.758998,13.7235641 C110.357459,14.1196392 110.943634,14.6583015 111.517525,15.3395507 C112.08966,16.0225603 112.895213,17.2107858 113.932428,18.9077478 C114.585294,19.9745102 115.108289,20.7772225 115.503167,21.3158848 L116.496507,22.6625403 L113.302377,22.6625403 L112.484539,21.4232651 C112.456459,21.3774965 112.402053,21.3018021 112.323077,21.1944217 L111.801837,20.4533211 L110.96996,19.0802605 L110.071391,17.612142 C109.518561,16.8393553 109.011361,16.2249987 108.549792,15.7690722 C108.088222,15.3113854 107.670529,14.9822029 107.30022,14.7797645 C106.928157,14.5790864 106.303371,14.4787474 105.425862,14.4787474 L104.727366,14.4787474 L104.727366,22.6625403 L102.043945,22.6625403 Z M105.531163,6.14708643 L104.727366,6.14708643 L104.727366,12.0829328 L105.74703,12.0829328 C107.107168,12.0829328 108.040837,11.9667507 108.544527,11.7326263 C109.049972,11.4985019 109.443095,11.1464351 109.725653,10.6746656 C110.008211,10.2046564 110.148612,9.66951482 110.148612,9.06748058 C110.148612,8.47424802 109.99066,7.93910647 109.678267,7.45853528 C109.365874,6.97796409 108.92361,6.63997996 108.35674,6.44282255 C107.788115,6.24566514 106.845671,6.14708643 105.531163,6.14708643 L105.531163,6.14708643 Z" id="Fill-62"></path>
                    <polygon id="Fill-63" points="119.963893 22.6625403 122.647313 22.6625403 122.647313 3.85865219 119.963893 3.85865219"></polygon>
                    <path d="M128.207908,22.6350791 L128.207908,3.85759599 L134.529477,3.85759599 C137.077761,3.85759599 139.09603,4.24134881 140.582529,5.00885445 C142.065518,5.77636008 143.248399,6.9047342 144.124152,8.39397678 C145.001661,9.88321937 145.43866,11.5080077 145.43866,13.2665814 C145.43866,14.5234599 145.198223,15.725768 144.715593,16.8735058 C144.231209,18.0230039 143.541487,19.0334357 142.648184,19.9030407 C141.735575,20.800811 140.675545,21.4785396 139.468094,21.9362265 C138.760822,22.2125989 138.111466,22.3991943 137.52178,22.4942524 C136.93034,22.5875501 135.803619,22.6350791 134.139863,22.6350791 L128.207908,22.6350791 Z M134.246919,6.25341061 L130.893083,6.25341061 L130.893083,20.2392645 L134.329405,20.2392645 C135.670238,20.2392645 136.710963,20.1477271 137.45509,19.962892 C138.195707,19.7798173 138.816982,19.5456929 139.313652,19.2622791 C139.810322,18.9806256 140.263116,18.6320795 140.675545,18.2201613 C141.998827,16.8735058 142.660469,15.1730231 142.660469,13.1187133 C142.660469,11.0996102 141.981277,9.45369787 140.621139,8.17921603 C140.119205,7.70392585 139.545314,7.31313169 138.899468,7.00683357 C138.248357,6.70229578 137.634101,6.5016177 137.051436,6.40127866 C136.46877,6.30269996 135.535102,6.25341061 134.246919,6.25341061 L134.246919,6.25341061 Z" id="Fill-64"></path>
                    <path d="M17.137825,4.84567148 L1.58662345,4.84567148 C1.38655156,4.84567148 1.22333503,5.00762221 1.22333503,5.20830029 C1.22333503,5.40897837 1.38655156,5.57268944 1.58662345,5.57268944 L17.137825,5.57268944 C17.3378969,5.57268944 17.5011134,5.40897837 17.5011134,5.20830029 C17.5011134,5.00762221 17.3378969,4.84567148 17.137825,4.84567148" id="Fill-65"></path>
                    <path d="M17.137825,6.69331808 L1.58662345,6.69331808 C1.38655156,6.69331808 1.22333503,6.85702914 1.22333503,7.05594689 C1.22333503,7.25662497 1.38655156,7.42033603 1.58662345,7.42033603 L17.137825,7.42033603 C17.3378969,7.42033603 17.5011134,7.25662497 17.5011134,7.05594689 C17.5011134,6.85526881 17.3378969,6.69331808 17.137825,6.69331808" id="Fill-66"></path>
                    <path d="M1.58644795,6.49598463 L2.39551057,6.49598463 C2.59558246,6.49598463 2.75879899,6.3340339 2.75879899,6.13335582 C2.75879899,5.93267775 2.59558246,5.76896668 2.39551057,5.76896668 L1.58644795,5.76896668 C1.38637606,5.76896668 1.22491454,5.93267775 1.22491454,6.13335582 C1.22491454,6.3340339 1.38637606,6.49598463 1.58644795,6.49598463" id="Fill-67"></path>
                    <path d="M17.137825,5.76931875 L16.3287624,5.76931875 C16.1304455,5.76931875 15.9672289,5.93126948 15.9672289,6.13370789 C15.9672289,6.33438597 16.1304455,6.4963367 16.3287624,6.4963367 L17.137825,6.4963367 C17.3378969,6.4963367 17.5011134,6.33438597 17.5011134,6.13370789 C17.5011134,5.93126948 17.3378969,5.76931875 17.137825,5.76931875" id="Fill-68"></path>
                    <path d="M10.1721643,6.49598463 C10.3722362,6.49598463 10.5336978,6.3340339 10.5336978,6.13335582 C10.5336978,5.93267775 10.3722362,5.76896668 10.1721643,5.76896668 L8.5540391,5.76896668 C8.35396721,5.76896668 8.19075068,5.93267775 8.19075068,6.13335582 C8.19075068,6.3340339 8.35396721,6.49598463 8.5540391,6.49598463 L10.1721643,6.49598463 Z" id="Fill-69"></path>
                    <polygon id="Fill-70" points="4.28197785 6.11804092 5.47363407 6.52819875 6.6652903 6.11804092 5.47363407 5.70788309"></polygon>
                    <polygon id="Fill-71" points="12.0595091 6.11804092 13.2529204 6.52819875 14.4428216 6.11804092 13.2529204 5.70788309"></polygon>
                    <path d="M15.5990265,6.11839299 C15.5990265,5.90011157 15.4235248,5.72231783 15.2059028,5.72231783 C14.9865257,5.72231783 14.809269,5.90011157 14.809269,6.11839299 C14.809269,6.33667441 14.9865257,6.51446814 15.2059028,6.51446814 C15.4235248,6.51446814 15.5990265,6.33667441 15.5990265,6.11839299" id="Fill-72"></path>
                    <path d="M11.6914822,6.11839299 C11.6914822,5.90011157 11.5159805,5.72231783 11.2966034,5.72231783 C11.0789814,5.72231783 10.9017247,5.90011157 10.9017247,6.11839299 C10.9017247,6.33667441 11.0789814,6.51446814 11.2966034,6.51446814 C11.5159805,6.51446814 11.6914822,6.33667441 11.6914822,6.11839299" id="Fill-73"></path>
                    <path d="M7.82272371,6.11839299 C7.82272371,5.90011157 7.64546704,5.72231783 7.42784499,5.72231783 C7.21022294,5.72231783 7.03296627,5.90011157 7.03296627,6.11839299 C7.03296627,6.33667441 7.21022294,6.51446814 7.42784499,6.51446814 C7.64546704,6.51446814 7.82272371,6.33667441 7.82272371,6.11839299" id="Fill-74"></path>
                    <path d="M3.91517939,6.11839299 C3.91517939,5.90011157 3.73792272,5.72231783 3.52030067,5.72231783 C3.30267862,5.72231783 3.12366693,5.90011157 3.12366693,6.11839299 C3.12366693,6.33667441 3.30267862,6.51446814 3.52030067,6.51446814 C3.73792272,6.51446814 3.91517939,6.33667441 3.91517939,6.11839299" id="Fill-75"></path>
                    <path d="M17.9149463,0.6735038 C17.3006905,0.6735038 16.9426671,1.191042 16.8531613,1.35299273 C16.8075309,1.3406704 16.6214991,1.31426539 16.5618286,1.31426539 C16.3301664,1.31426539 16.2055602,1.33714973 16.1248294,1.39348042 C16.2827809,1.49734013 16.4846078,1.64520818 16.5249732,2.00431633 C16.1739699,1.96030797 16.0265485,1.7596299 15.9247575,1.60119983 C15.866842,1.68393553 15.8440268,1.80891925 15.8440268,2.04128334 C15.8440268,2.09057269 15.8440268,2.14690338 15.8475368,2.19619273 C15.5877944,2.22083741 15.333317,2.37750714 15.226261,2.5253752 C15.333317,2.67324326 15.5877944,2.82991299 15.8475368,2.85455766 C15.8440268,2.90384701 15.8440268,2.96193804 15.8440268,3.01122739 C15.8440268,3.24183115 15.866842,3.3685752 15.9247575,3.44955056 C16.0388336,3.27175683 16.2090702,3.03939273 16.6671295,3.03939273 L16.7355752,3.03939273 C16.7373302,3.06931841 16.7390852,3.09924409 16.7390852,3.1256491 C16.7390852,3.52876559 16.5530535,3.89315474 16.0669139,3.89315474 C15.7422358,3.89315474 15.5702442,3.65550965 15.4947785,3.50412092 C15.547429,3.43018689 15.5790193,3.33864952 15.5790193,3.24007081 C15.5790193,2.98834305 15.3754374,2.7841443 15.12447,2.7841443 C14.8752577,2.7841443 14.6699207,2.98834305 14.6699207,3.24007081 C14.6699207,3.33864952 14.701511,3.43018689 14.7559165,3.50412092 C14.6804508,3.65550965 14.5084592,3.89315474 14.1837811,3.89315474 C13.6976416,3.89315474 13.5116098,3.52876559 13.5116098,3.1256491 C13.5116098,3.09924409 13.5116098,3.06931841 13.5151198,3.03939273 L13.5818105,3.03939273 C14.0398698,3.03939273 14.2101064,3.27175683 14.3259375,3.44955056 C14.383853,3.3685752 14.4066682,3.24183115 14.4066682,3.01122739 C14.4066682,2.96193804 14.4049132,2.90384701 14.4031582,2.85455766 C14.6611456,2.82991299 14.9173781,2.67324326 15.022679,2.5253752 C14.9173781,2.37750714 14.6611456,2.22083741 14.4031582,2.19619273 C14.4049132,2.14690338 14.4066682,2.09057269 14.4066682,2.04128334 C14.4066682,1.80891925 14.383853,1.68393553 14.3259375,1.60119983 C14.2223915,1.7596299 14.0784802,1.96030797 13.7239668,2.00431633 C13.7643322,1.64520818 13.9679141,1.49734013 14.1258656,1.39348042 C14.0433798,1.33714973 13.9187736,1.31426539 13.6888665,1.31426539 C13.639726,1.31426539 13.5818105,1.31426539 13.53267,1.31778605 C13.5080998,1.05725662 13.3519033,0.802008184 13.2044819,0.694627808 C13.0570605,0.802008184 12.9008641,1.05725662 12.8762938,1.31778605 C12.8253983,1.31426539 12.7692378,1.31426539 12.7200974,1.31426539 C12.4884352,1.31426539 12.365584,1.33714973 12.2813432,1.39348042 C12.4410497,1.49734013 12.6428766,1.64520818 12.683242,2.00431633 C12.3304837,1.96030797 12.1848173,1.7596299 12.0812713,1.60119983 C12.0251108,1.68393553 12.0022956,1.80891925 12.0022956,2.04128334 C12.0022956,2.09057269 12.0040506,2.14690338 12.0058056,2.19619273 C11.7460632,2.22083741 11.4915858,2.37750714 11.3845298,2.5253752 C11.4915858,2.67324326 11.7460632,2.82991299 12.0058056,2.85455766 C12.0040506,2.90384701 12.0022956,2.96193804 12.0022956,3.01122739 C12.0022956,3.24183115 12.0251108,3.3685752 12.0812713,3.44955056 C12.1971024,3.27175683 12.367339,3.03939273 12.8253983,3.03939273 L12.893844,3.03939273 C12.895599,3.06931841 12.897354,3.09924409 12.897354,3.1256491 C12.897354,3.52876559 12.7113223,3.89315474 12.2251827,3.89315474 C11.9005046,3.89315474 11.728513,3.65550965 11.6530473,3.50412092 C11.7056978,3.43018689 11.7372881,3.33864952 11.7372881,3.24007081 C11.7372881,2.98834305 11.5337062,2.7841443 11.2844938,2.7841443 C11.2511485,2.7841443 11.2213132,2.78766497 11.191478,2.79294597 C10.984386,2.83519399 10.8299445,3.02002906 10.8299445,3.24007081 C10.8299445,3.33864952 10.8597798,3.43018689 10.9141853,3.50412092 C10.8369646,3.65550965 10.666728,3.89315474 10.3420499,3.89315474 C9.85591037,3.89315474 9.66987861,3.52876559 9.66987861,3.1256491 C9.66987861,3.09924409 9.67163363,3.06931841 9.67163363,3.03939273 L9.74183429,3.03939273 C10.1981386,3.03939273 10.3701302,3.27175683 10.4842063,3.44955056 C10.5403668,3.3685752 10.564937,3.24183115 10.564937,3.01122739 C10.564937,2.96193804 10.563182,2.90384701 10.561427,2.85455766 C10.8211695,2.82991299 11.0756469,2.67324326 11.1827029,2.5253752 C11.0756469,2.37750714 10.8211695,2.22083741 10.561427,2.19619273 C10.563182,2.14690338 10.564937,2.09057269 10.564937,2.04128334 C10.564937,1.80891925 10.5403668,1.68393553 10.4842063,1.60119983 C10.3806603,1.7596299 10.2349939,1.96030797 9.88223561,2.00431633 C9.92435601,1.64520818 10.1244279,1.49734013 10.2841344,1.39348042 C10.2016486,1.33714973 10.0770424,1.31426539 9.84538027,1.31426539 C9.79799482,1.31426539 9.74007927,1.31426539 9.69093881,1.31778605 C9.66461356,1.05725662 9.51017211,0.802008184 9.36275072,0.694627808 C9.21357431,0.802008184 9.05913286,1.05725662 9.03456263,1.31778605 C8.98542216,1.31426539 8.92750662,1.31426539 8.88012117,1.31426539 C8.64670397,1.31426539 8.5220978,1.33714973 8.44136704,1.39348042 C8.59931853,1.49734013 8.80114543,1.64520818 8.84151081,2.00431633 C8.4905075,1.96030797 8.34308611,1.7596299 8.24129515,1.60119983 C8.18337961,1.68393553 8.16056439,1.80891925 8.16056439,2.04128334 C8.16056439,2.09057269 8.16231941,2.14690338 8.16407442,2.19619273 C7.90433198,2.22083741 7.64985458,2.37750714 7.54279857,2.5253752 C7.64985458,2.67324326 7.90433198,2.82991299 8.16407442,2.85455766 C8.16231941,2.90384701 8.16056439,2.96193804 8.16056439,3.01122739 C8.16056439,3.24183115 8.18337961,3.3685752 8.24129515,3.44955056 C8.35537123,3.27175683 8.52560783,3.03939273 8.98366715,3.03939273 L9.05211279,3.03939273 C9.05386781,3.06931841 9.05562283,3.09924409 9.05562283,3.1256491 C9.05562283,3.52876559 8.86959107,3.89315474 8.38345149,3.89315474 C8.05877343,3.89315474 7.88678181,3.65374931 7.80956108,3.50412092 C7.86221158,3.42842656 7.89380188,3.33864952 7.89380188,3.24007081 C7.89380188,2.98834305 7.69021996,2.7841443 7.4392526,2.7841443 C7.18828523,2.7841443 6.98470331,2.98834305 6.98470331,3.24007081 C6.98470331,3.33864952 7.01804863,3.43194722 7.07069912,3.50588125 C6.99523341,3.65726998 6.82324179,3.89315474 6.50031875,3.89315474 C6.01417917,3.89315474 5.82814741,3.52876559 5.82814741,3.1256491 C5.82814741,3.09924409 5.82814741,3.06931841 5.83165745,3.03939273 L5.90010309,3.03939273 C6.35640739,3.03939273 6.52839901,3.27175683 6.6442301,3.44955056 C6.70039063,3.3685752 6.72320585,3.24183115 6.72320585,3.01122739 C6.72320585,2.96193804 6.72145083,2.90384701 6.71969582,2.85455766 C6.97943826,2.82991299 7.23391566,2.67324326 7.34097167,2.5253752 C7.23391566,2.37750714 6.97943826,2.22083741 6.71969582,2.19619273 C6.72145083,2.14690338 6.72320585,2.09057269 6.72320585,2.04128334 C6.72320585,1.80891925 6.70039063,1.68393553 6.6442301,1.60119983 C6.54068413,1.7596299 6.39501776,1.96030797 6.04050442,2.00431633 C6.0808698,1.64520818 6.28445171,1.49734013 6.4424032,1.39348042 C6.35991743,1.33714973 6.23531125,1.31426539 6.00540408,1.31426539 C5.95626362,1.31426539 5.89659306,1.31426539 5.84920761,1.31778605 C5.82463738,1.05725662 5.66844091,0.802008184 5.52101952,0.694627808 C5.37184312,0.802008184 5.21740166,1.05725662 5.19283143,1.31778605 C5.14369097,1.31426539 5.08577542,1.31426539 5.03663496,1.31426539 C4.80672779,1.31426539 4.68212162,1.33714973 4.59963584,1.39348042 C4.75934234,1.49734013 4.95941423,1.64520818 5.00153463,2.00431633 C4.64702129,1.96030797 4.50135491,1.7596299 4.39780894,1.60119983 C4.34164841,1.68393553 4.31883319,1.80891925 4.31883319,2.04128334 C4.31883319,2.09057269 4.32058821,2.14690338 4.32058821,2.19619273 C4.0643558,2.22083741 3.80812338,2.37750714 3.70106737,2.5253752 C3.80812338,2.67324326 4.0643558,2.82991299 4.32058821,2.85455766 C4.32058821,2.90384701 4.31883319,2.96193804 4.31883319,3.01122739 C4.31883319,3.24183115 4.34164841,3.3685752 4.39780894,3.44955056 C4.51539505,3.27175683 4.68387663,3.03939273 5.14193595,3.03939273 L5.21038159,3.03939273 C5.21213661,3.06931841 5.21389163,3.09924409 5.21389163,3.1256491 C5.21389163,3.52876559 5.02785987,3.89315474 4.54172029,3.89315474 C4.21704223,3.89315474 4.04505061,3.65550965 3.9695849,3.50412092 C4.02399042,3.43018689 4.0538257,3.33864952 4.0538257,3.24007081 C4.0538257,2.98834305 3.85024378,2.7841443 3.60103143,2.7841443 C3.47467024,2.7841443 3.36059416,2.83519399 3.27810839,2.91792969 C3.19737763,3.00066539 3.14648215,3.11332676 3.14648215,3.24007081 C3.14648215,3.33864952 3.17631743,3.43018689 3.23072294,3.50412092 C3.15350221,3.65550965 2.98151059,3.89315474 2.65858755,3.89315474 C2.17244797,3.89315474 1.98641622,3.52876559 1.98641622,3.1256491 C1.98641622,3.09924409 1.98817123,3.06931841 1.98992625,3.03939273 L2.05837189,3.03939273 C2.51467619,3.03939273 2.6849128,3.27175683 2.80074389,3.44955056 C2.85865944,3.3685752 2.87971963,3.24183115 2.87971963,3.01122739 C2.87971963,2.96193804 2.87971963,2.90384701 2.87796462,2.85455766 C3.13770706,2.82991299 3.39218446,2.67324326 3.49924047,2.5253752 C3.39218446,2.37750714 3.13770706,2.22083741 2.87796462,2.19619273 C2.87971963,2.14690338 2.87971963,2.09057269 2.87971963,2.04128334 C2.87971963,1.80891925 2.85865944,1.68393553 2.80074389,1.60119983 C2.69719791,1.7596299 2.55153154,1.96030797 2.19877322,2.00431633 C2.24089361,1.64520818 2.4409655,1.49734013 2.600672,1.39348042 C2.51818623,1.33714973 2.39358005,1.31426539 2.16191787,1.31426539 C2.10400232,1.31426539 1.91621556,1.3406704 1.87234014,1.35299273 C1.78107928,1.191042 1.42481092,0.6735038 0.810555137,0.6735038 C0.417431433,0.6735038 0.0558980264,0.867140543 0.00324753029,0.91819023 C0.208584465,0.91819023 0.536772557,0.93579357 0.808800121,1.20864534 C1.19490376,1.59591883 1.22298402,1.90749795 1.22298402,2.96721904 C1.22298402,4.09911382 1.80213948,4.65185871 2.63401732,4.65185871 C3.11313683,4.65185871 3.60103143,4.28394889 3.60103143,4.28394889 C3.60103143,4.28394889 4.08717101,4.65185871 4.56629053,4.65185871 C5.0734903,4.65185871 5.52101952,4.26106455 5.52101952,4.26106455 C5.52101952,4.26106455 5.96854874,4.65185871 6.47574852,4.65185871 C6.95311301,4.65185871 7.44100761,4.28394889 7.44100761,4.28394889 C7.44100761,4.28394889 7.92890221,4.65185871 8.40802172,4.65185871 C8.9152215,4.65185871 9.36275072,4.26106455 9.36275072,4.26106455 C9.36275072,4.26106455 9.81027994,4.65185871 10.3174797,4.65185871 C10.7965992,4.65185871 11.2844938,4.28394889 11.2844938,4.28394889 C11.2844938,4.28394889 11.7706334,4.65185871 12.2497529,4.65185871 C12.7569527,4.65185871 13.2044819,4.26106455 13.2044819,4.26106455 C13.2044819,4.26106455 13.6520111,4.65185871 14.1592109,4.65185871 C14.6365754,4.65185871 15.12447,4.28394889 15.12447,4.28394889 C15.12447,4.28394889 15.6123646,4.65185871 16.0914841,4.65185871 C16.923362,4.65185871 17.5007624,4.09911382 17.5007624,2.96721904 C17.5007624,1.90749795 17.5288427,1.59591883 17.9167013,1.20864534 C18.1869739,0.93579357 18.516917,0.91819023 18.7222539,0.91819023 C18.6696034,0.867140543 18.30807,0.6735038 17.9149463,0.6735038" id="Fill-76"></path>
                    <path d="M1.47219637,7.67171173 L1.47044135,20.6471339 C1.47044135,24.489943 4.13631147,26.6815589 9.3609957,26.6815589 C14.5839249,26.6815589 17.249795,24.489943 17.249795,20.6471339 L17.249795,7.67171173 L1.47219637,7.67171173 Z M8.62564377,8.45153971 L9.1486387,8.50963073 L9.3609957,8.02729921 L9.5733527,8.50963073 L10.0963476,8.45153971 L9.78395469,8.87754054 L10.0963476,9.30354138 L9.5733527,9.24545035 L9.3609957,9.72778188 L9.1486387,9.24545035 L8.62564377,9.30354138 L8.9362817,8.87754054 L8.62564377,8.45153971 Z M1.96886605,8.45153971 L2.49186098,8.50963073 L2.70421798,8.02729921 L2.91481996,8.50963073 L3.43781489,8.45153971 L3.12717697,8.87754054 L3.43781489,9.30354138 L2.91481996,9.24545035 L2.70421798,9.72778188 L2.49186098,9.24545035 L1.96886605,9.30354138 L2.27950398,8.87754054 L1.96886605,8.45153971 Z M1.96886605,14.8292299 L2.49186098,14.8873209 L2.70421798,14.4049894 L2.91481996,14.8873209 L3.43781489,14.8292299 L3.12717697,15.2552307 L3.43781489,15.6812316 L2.91481996,15.6231405 L2.70421798,16.1054721 L2.49186098,15.6231405 L1.96886605,15.6812316 L2.27950398,15.2552307 L1.96886605,14.8292299 Z M3.53258579,22.0571614 L3.01134587,22.0008307 L2.79898887,22.4831623 L2.58663187,22.0008307 L2.06539196,22.0571614 L2.37602989,21.6329209 L2.06539196,21.2069201 L2.58663187,21.2650111 L2.79898887,20.7809192 L3.01134587,21.2650111 L3.53258579,21.2069201 L3.22370287,21.6329209 L3.53258579,22.0571614 Z M9.3609957,24.1220332 C6.34236726,24.1220332 4.99275954,23.2172215 4.39605392,22.2279138 L14.3259375,22.2279138 C13.7274768,23.2172215 12.3796241,24.1220332 9.3609957,24.1220332 L9.3609957,24.1220332 Z M11.0545867,20.8020433 L11.5898667,21.4322428 L11.3125741,21.5255405 C11.2634336,21.5431439 11.198498,21.5924332 11.1686627,21.6364416 L11.1072372,21.722698 L10.4859613,21.722698 C10.131448,21.722698 9.84362525,21.4357635 9.84362525,21.0784157 L9.84362525,18.0946495 L10.2191988,18.8392708 C10.2665842,18.9343289 10.3824153,18.9906595 10.4789412,18.9642545 L10.6526879,18.9184858 L10.6526879,19.0663539 C10.6526879,19.2441476 10.664973,19.4008174 10.6842782,19.5363631 C10.768519,20.1700833 11.0212413,20.3795631 11.1388275,20.4446954 L11.0458116,20.5749602 C10.9984261,20.6400925 11.0036912,20.7421919 11.0545867,20.8020433 L11.0545867,20.8020433 Z M14.7857518,20.3742821 C14.7857518,20.7439522 14.7506515,21.2280441 14.5681298,21.722698 L13.320313,21.722698 L12.899109,20.7668366 C13.0711007,20.5855222 13.1781567,20.3390754 13.1781567,20.067984 C13.1781567,19.8831489 13.1272612,19.7088758 13.0395104,19.5574871 L12.5516158,18.7142871 L11.9654402,17.0419698 L11.9215648,16.3607205 L12.0531911,16.2885468 C12.1462069,16.2374971 12.1935924,16.1142737 12.1584921,16.0139347 L12.1198817,15.8977527 C12.0847814,15.7956533 11.9724603,15.7305209 11.8689143,15.7481243 L11.6776175,15.7815706 L11.3985699,15.5615289 C11.3582045,15.5280825 11.2827388,15.5104792 11.2318433,15.5210412 L11.0598517,15.5544875 L10.663218,15.2393877 C10.6228526,15.2077017 10.563182,15.2165034 10.5315917,15.2587514 L10.2999295,15.5808925 C10.2542991,15.6460249 10.2490341,15.7516449 10.2929095,15.820298 L10.6456678,16.3941668 L10.6456678,17.4239623 L10.3929454,17.4239623 C10.2542991,17.4239623 10.1419781,17.2725735 10.1419781,17.0859781 L10.1419781,16.7567957 C10.1419781,16.7039856 10.1121428,16.6300516 10.0735324,16.5930846 L9.84362525,16.3624808 L9.84362525,15.045751 C11.5073809,14.8820399 12.7797679,13.9613852 12.7797679,12.8541351 C12.7797679,11.6271823 11.2248233,10.6343539 9.30659019,10.6343539 C7.38835712,10.6343539 5.83341246,11.6271823 5.83341246,12.8541351 C5.83341246,13.9613852 7.10755447,14.8820399 8.76955513,15.045751 L8.76955513,21.0784157 C8.76955513,21.4357635 8.48173242,21.722698 8.12721908,21.722698 L4.15386164,21.722698 C3.97133992,21.2280441 3.93448457,20.7439522 3.93448457,20.3742821 L3.93448457,10.0833694 L14.7857518,10.0833694 L14.7857518,20.3742821 Z M16.6565994,22.0571614 L16.1336045,22.0008307 L15.9230025,22.4831623 L15.7106455,22.0008307 L15.1876506,22.0571614 L15.4982885,21.6329209 L15.1876506,21.2069201 L15.7106455,21.2650111 L15.9230025,20.7809192 L16.1336045,21.2650111 L16.6565994,21.2069201 L16.3477165,21.6329209 L16.6565994,22.0571614 Z M16.7513703,15.6812316 L16.2301304,15.6231405 L16.0177734,16.1054721 L15.8054164,15.6231405 L15.2841765,15.6812316 L15.5948144,15.2552307 L15.2841765,14.8292299 L15.8054164,14.8873209 L16.0177734,14.4049894 L16.2301304,14.8873209 L16.7513703,14.8292299 L16.4424874,15.2552307 L16.7513703,15.6812316 Z M16.7513703,9.30354138 L16.2301304,9.24545035 L16.0177734,9.72778188 L15.8054164,9.24545035 L15.2841765,9.30354138 L15.5948144,8.87754054 L15.2841765,8.45153971 L15.8054164,8.50963073 L16.0177734,8.02729921 L16.2301304,8.50963073 L16.7513703,8.45153971 L16.4424874,8.87754054 L16.7513703,9.30354138 Z" id="Fill-77"></path>
                </g>
            </g>
        </g>
    </g>
</svg>
