<?xml version="1.0" encoding="UTF-8"?>
<svg width="251px" height="40px" viewBox="0 0 251 40" version="1.1" xmlns="http://www.w3.org/2000/svg" xmlns:xlink="http://www.w3.org/1999/xlink">
    <!-- Generator: Sketch 39.1 (31720) - http://www.bohemiancoding.com/sketch -->
    <title>LOGO VOLUNTARIOS ALTA</title>
    <desc>Created with Sketch.</desc>
    <defs></defs>
    <g id="Symbols" stroke="none" stroke-width="1" fill="none" fill-rule="evenodd">
        <g id="Menú-cabecera" transform="translate(-45.000000, -30.000000)">
            <g id="Group-2">
                <g id="Menú" transform="translate(45.000000, 30.000000)">
                    <g id="LOGO-VOLUNTARIOS-ALTA">
                        <g>
                            <path d="M105.832452,26.7403478 C101.084974,26.6307826 99.2154087,24.4509565 99.1058435,21.8906087 L99.1058435,21.3034783 C99.2922783,17.8123478 102.446365,13.8787826 105.832452,13.5831304 C107.558365,13.4426087 109.340974,14.2304348 110.826191,16.5073043 C111.891235,18.1598261 112.40393,19.6116522 112.53193,20.8565217 C112.586191,21.2641739 112.567757,21.6673043 112.53193,22.0582609 C112.215757,25.0012174 109.593148,26.5337391 107.8488,26.6805217 C107.12393,26.734087 106.458887,26.7549565 105.832452,26.7403478 M105.832452,18.3086957 C105.124626,18.2363478 104.558017,17.6074783 104.079757,17.1382609 C103.003235,16.0606957 101.327061,17.6881739 102.406365,18.8029565 C103.93993,20.3956522 103.93993,20.7222609 102.406365,22.3104348 C101.327061,23.4314783 103.003235,25.0693913 104.079757,23.9918261 C105.616104,22.4530435 106.053322,22.4492174 107.583757,23.9918261 C108.673148,25.0714783 110.349322,23.4026087 109.258539,22.3104348 C107.699235,20.7490435 107.759061,20.3664348 109.258539,18.8029565 C110.329148,17.6902609 108.696104,16.0728696 107.583757,17.1382609 C107.223757,17.4836522 106.413322,18.3646957 105.832452,18.3086957" id="Fill-1" fill="#1A1918"></path>
                            <path d="M21.4735304,20.7221217 C21.4735304,18.9889043 20.0467478,17.5725565 18.3072696,17.5725565 C16.5472696,17.5725565 15.1142261,18.9889043 15.1142261,20.7221217 C15.1142261,22.4574261 16.5472696,23.8762087 18.3072696,23.8762087 C20.0467478,23.8762087 21.4735304,22.4574261 21.4735304,20.7221217 M24.4888348,20.7221217 C24.4888348,24.1325565 21.7218783,26.9262957 18.3072696,26.9262957 C14.8742261,26.9262957 12.1030957,24.1325565 12.1030957,20.7221217 C12.1030957,17.3099478 14.8742261,14.5158609 18.3072696,14.5158609 C21.7218783,14.5158609 24.4888348,17.3099478 24.4888348,20.7221217" id="Fill-3" fill="#000105"></path>
                            <path d="M32.9618783,23.8160348 C34.0147478,23.8160348 34.5521391,24.6080348 34.5521391,25.3732522 C34.5521391,26.1363826 34.0147478,26.9262957 32.9618783,26.9262957 L28.360487,26.9262957 C27.3406609,26.9224696 26.8032696,26.3061217 26.8032696,25.3732522 L26.8032696,15.8167304 C26.8032696,14.7680348 27.5890087,14.2302957 28.360487,14.2302957 C29.1257043,14.2302957 29.9135304,14.7680348 29.9135304,15.8167304 L29.9135304,23.3899478 C29.9156174,23.7002087 30.000487,23.8160348 30.364313,23.8160348 L32.9618783,23.8160348 Z" id="Fill-5" fill="#000105"></path>
                            <path d="M39.0504348,21.3342609 C39.0278261,22.8253913 40.1464348,23.8532174 41.5175652,23.8946087 C42.8949565,23.8615652 44.0264348,22.8274783 44.0076522,21.3342609 L44.0076522,16.0855652 C44.0076522,15.0556522 44.7770435,14.5283478 45.533913,14.5283478 C46.2907826,14.5283478 47.0601739,15.0556522 47.0601739,16.0855652 L47.0601739,21.3342609 C47.0810435,24.912 44.2928696,26.8396522 41.525913,26.9266087 C38.7652174,26.8396522 35.9732174,24.912 35.9958261,21.3342609 L35.9958261,16.0855652 C35.9958261,15.0556522 36.7693913,14.5283478 37.5158261,14.5283478 C38.2768696,14.5283478 39.0504348,15.0556522 39.0504348,16.0855652 L39.0504348,21.3342609 Z" id="Fill-7" fill="#000105"></path>
                            <path d="M52.383513,20.1182261 L52.383513,25.3735304 C52.383513,26.4010087 51.6040348,26.9265739 50.8551652,26.9265739 C50.1024696,26.9265739 49.3268174,26.4010087 49.3268174,25.3735304 L49.3268174,20.1182261 C49.3083826,16.536313 52.0941217,14.6110957 54.8631652,14.528313 C57.6426435,14.6110957 60.4391652,16.536313 60.3977739,20.1224 L60.3977739,25.3735304 C60.3977739,26.4010087 59.6217739,26.9265739 58.871513,26.9265739 C58.1139478,26.9265739 57.3449043,26.4010087 57.3449043,25.3735304 L57.3449043,20.1182261 C57.3762087,18.6538783 56.2572522,17.6180522 54.8576,17.580487 C53.4819478,17.6239652 52.3709913,18.656313 52.383513,20.1182261" id="Fill-9" fill="#000105"></path>
                            <path d="M65.6564522,18.0667826 C65.6564522,17.7026087 65.5082783,17.562087 65.2550609,17.562087 L62.6860174,17.562087 C61.6522783,17.562087 61.1298435,16.7885217 61.1298435,16.037913 C61.1298435,15.2873043 61.6522783,14.5074783 62.6860174,14.5074783 L71.7051478,14.5074783 C72.7361043,14.5074783 73.258887,15.2873043 73.258887,16.037913 C73.258887,16.7885217 72.7361043,17.562087 71.7051478,17.562087 L69.1566261,17.562087 C68.8832348,17.562087 68.7277565,17.7109565 68.7277565,18.0667826 L68.7277565,25.3732174 C68.7277565,26.4052174 67.9434087,26.9262609 67.1914087,26.9262609 C66.4411478,26.9262609 65.6564522,26.4052174 65.6564522,25.3732174 L65.6564522,18.0667826 Z" id="Fill-11" fill="#000105"></path>
                            <path d="M75.1768,25.9607304 C74.3552348,27.8633391 71.5472348,26.6720348 72.3632348,24.771513 L76.4825391,15.183687 C76.9594087,13.9760348 78.5371478,13.9781217 79.0056696,15.1878609 L83.1281043,24.771513 C83.9496696,26.6887304 81.1288,27.8529043 80.3385391,25.9607304 L77.8881043,20.279687 C77.810887,20.0873391 77.678713,20.0873391 77.6018435,20.279687 L75.1768,25.9607304 Z" id="Fill-13" fill="#000105"></path>
                            <path d="M88.2740522,20.1182261 L88.2740522,25.3735304 C88.2740522,26.4010087 87.4966609,26.9265739 86.7491826,26.9265739 C85.9930087,26.9265739 85.2211826,26.4010087 85.2211826,25.3735304 L85.2211826,20.1182261 C85.2211826,16.9808348 87.7985739,14.5074435 90.8357913,14.5074435 C93.028487,14.5074435 92.7693565,17.6552696 90.8229217,17.5599652 C89.404487,17.568313 88.2740522,18.7387478 88.2740522,20.1182261" id="Fill-15" fill="#000105"></path>
                            <path d="M94.3613217,15.7711304 C94.3613217,14.7391304 95.1317565,14.2201739 95.8861913,14.2201739 C96.6326261,14.2201739 97.4100174,14.7391304 97.4100174,15.7711304 L97.4100174,25.3669565 C97.4100174,26.3930435 96.6326261,26.9224348 95.8921043,26.9266087 C95.1317565,26.9304348 94.3613217,26.4010435 94.3613217,25.3669565 L94.3613217,15.7711304 Z" id="Fill-17" fill="#000105"></path>
                            <path d="M114.085496,19.3757913 C113.408974,18.6975304 113.476104,17.8185739 114.102539,17.1754435 C114.862887,16.3006609 116.064626,15.260313 116.452104,14.8777043 C116.788104,14.5406609 117.216626,14.4310957 117.628104,14.4310957 C121.014191,14.4909217 123.759583,17.3138783 123.759583,20.6766609 C123.759583,24.0808348 120.995757,26.9264 117.510191,26.9264 C116.467757,26.9264 115.470887,26.6679652 114.546713,26.1653565 C112.672974,25.1580522 114.424278,22.552487 115.999235,23.5347478 C118.120974,24.6620522 120.749496,23.096487 120.749496,20.6766609 C120.749496,19.3552696 119.919235,18.1330087 118.69767,17.6801391 C118.565148,17.632487 118.431235,17.5806609 118.286191,17.5806609 C118.155061,17.5806609 117.984278,17.6241391 117.784974,17.8206609 C117.368974,18.236313 116.603061,19.0077913 116.086191,19.4832696 C115.586365,19.9528348 114.760278,20.0460522 114.085496,19.3757913" id="Fill-19" fill="#000105"></path>
                            <path d="M3.08813913,15.2293565 L5.52013913,20.912487 C5.60083478,21.1110957 5.72083478,21.1110957 5.80570435,20.912487 L8.2544,15.2293565 C9.07318261,13.3225739 11.8630957,14.5135304 11.0418783,16.412313 L6.92431304,26.0227478 C6.45092174,27.2366609 4.89370435,27.2182261 4.40535652,26.0248348 L0.277356522,16.412313 C-0.541426087,14.5135304 2.27109565,13.3225739 3.08813913,15.2293565" id="Fill-21" fill="#000105"></path>
                            <path d="M183.474713,20.1203826 C183.474713,18.7099478 182.335583,17.5621217 180.93593,17.5621217 C179.528974,17.5621217 178.378365,18.7141217 178.378365,20.1203826 L178.378365,25.3732522 C178.378365,26.4010783 177.605148,26.9262957 176.850713,26.9262957 C176.097322,26.9262957 175.322713,26.4010783 175.322713,25.3732522 L175.322713,20.1203826 C175.322713,17.1071652 177.870191,14.4456 180.957148,14.507513 C182.335583,14.5280348 183.656974,15.0473391 184.676452,15.963513 C184.723409,16.0049043 184.927235,16.1847304 185.00967,16.1847304 C185.08793,16.1847304 185.284452,16.0049043 185.327235,15.963513 C186.359583,15.0494261 187.693843,14.5280348 189.064974,14.507513 C192.150539,14.4456 194.7008,17.1071652 194.7008,20.1203826 L194.7008,25.3732522 C194.7008,26.4010783 193.920626,26.9262957 193.17593,26.9262957 C192.42393,26.9262957 191.646539,26.4010783 191.646539,25.3732522 L191.646539,20.1203826 C191.646539,18.7141217 190.490365,17.5621217 189.089322,17.5621217 C187.68793,17.5621217 186.543235,18.7099478 186.543235,20.1203826 L186.543235,25.3753391 C186.543235,26.3993391 185.75993,26.9099478 185.015235,26.9099478 C184.264974,26.9099478 183.474713,26.3951652 183.474713,25.3732522 L183.474713,20.1203826 Z" id="Fill-23" fill="#000105"></path>
                            <path d="M199.510922,25.9607304 C198.687965,27.8633391 195.879965,26.6720348 196.695965,24.771513 L200.822226,15.183687 C201.287965,13.9760348 202.874052,13.9822957 203.3384,15.1899478 L207.459443,24.771513 C208.286574,26.6887304 205.462922,27.8529043 204.67127,25.9607304 L202.220487,20.279687 C202.143617,20.0873391 202.012835,20.0873391 201.934574,20.279687 L199.510922,25.9607304 Z" id="Fill-25" fill="#000105"></path>
                            <path d="M217.507896,18.2405217 C216.727722,17.5806957 216.281809,17.4485217 215.543026,17.4109565 L214.396591,17.4109565 C213.512417,17.4109565 212.761809,18.1535652 212.761809,19.0593043 L212.761809,23.0902609 C212.757635,23.5514783 212.909983,23.7953043 213.395548,23.7953043 L215.552765,23.7953043 C218.202852,23.7953043 219.260591,20.0147826 217.507896,18.2405217 L217.507896,18.2405217 Z M211.20007,26.9264348 C210.325635,26.9306087 209.640765,26.3598261 209.640765,25.4457391 L209.640765,18.9831304 C209.640765,16.3730435 211.840765,14.2822609 214.396591,14.2822609 L215.557287,14.2822609 C216.609461,14.3215652 217.562157,14.4725217 218.756591,15.2457391 C220.473809,16.3768696 221.402504,18.3768696 221.48633,20.3789565 C221.482157,20.4885217 221.500591,20.7365217 221.48633,20.9681739 C221.3312,24.3246957 219.068591,26.6453913 215.685287,26.9264348 L211.20007,26.9264348 Z" id="Fill-27" fill="#000105"></path>
                            <path d="M226.911478,20.1203826 L226.911478,25.3732522 C226.911478,26.4010783 226.139652,26.9262957 225.386609,26.9262957 C224.630435,26.9262957 223.857217,26.4010783 223.857217,25.3732522 L223.857217,20.1203826 C223.857217,16.9809043 226.428696,14.507513 229.467304,14.507513 C231.665913,14.507513 231.409565,17.6549913 229.457565,17.5600348 C228.040522,17.5683826 226.911478,18.7429913 226.911478,20.1203826" id="Fill-29" fill="#000105"></path>
                            <path d="M232.970296,15.7711304 C232.970296,14.7391304 233.74073,14.2201739 234.496904,14.2201739 C235.254122,14.2201739 236.025948,14.7391304 236.025948,15.7711304 L236.025948,25.3669565 C236.025948,26.3930435 235.254122,26.9224348 234.496904,26.9266087 C233.74073,26.9304348 232.970296,26.4010435 232.970296,25.3669565 L232.970296,15.7711304 Z" id="Fill-31" fill="#000105"></path>
                            <path d="M246.545983,18.2405217 C245.76407,17.5806957 245.319896,17.4485217 244.576591,17.4109565 L243.429113,17.4109565 C242.551896,17.4109565 241.801287,18.1535652 241.801287,19.0593043 L241.801287,23.0902609 C241.795722,23.5514783 241.94807,23.7953043 242.430852,23.7953043 L244.590852,23.7953043 C247.239548,23.7953043 248.300417,20.0147826 246.545983,18.2405217 L246.545983,18.2405217 Z M240.238157,26.9264348 C239.360939,26.9306087 238.677461,26.3598261 238.674678,25.4457391 L238.674678,18.9831304 C238.674678,16.3730435 240.883026,14.2822609 243.429113,14.2822609 L244.595026,14.2822609 C245.644765,14.3215652 246.600243,14.4725217 247.789113,15.2457391 C249.507722,16.3768696 250.440243,18.3768696 250.524417,20.3789565 C250.517113,20.4885217 250.541461,20.7365217 250.524417,20.9681739 C250.363374,24.3246957 248.103896,26.6453913 244.721983,26.9264348 L240.238157,26.9264348 Z" id="Fill-33" fill="#000105"></path>
                            <path d="M149.709217,14.4309565 C147.57913,14.2201739 145.86887,12.3234783 144.437913,10.8946087 C141.188522,7.64556522 136.150609,12.5488696 139.401391,15.9325217 C144.01913,20.717913 144.01913,21.7067826 139.401391,26.4984348 C136.150609,29.8733913 141.188522,34.7937391 144.437913,31.5446957 C149.057043,26.9266087 150.377043,26.9224348 155.00487,31.5446957 C158.272696,34.8142609 163.329043,29.7805217 160.041043,26.4984348 C155.343652,21.8017391 155.520348,20.6187826 160.041043,15.9325217 C163.269217,12.5697391 158.342609,7.67652174 155.00487,10.8946087 C153.912696,11.9429565 151.454957,14.6069565 149.709217,14.4309565 M149.709217,39.8417391 C135.424348,39.5088696 129.798609,32.9321739 129.448348,25.2184348 L129.448348,23.4584348 C130.003478,12.9297391 139.515478,1.08556522 149.709217,0.19826087 C154.916522,-0.248347826 160.297391,2.13808696 164.76,9.00626087 C167.98087,13.9885217 169.517565,18.352 169.903304,22.112 C170.065739,23.3426087 170.008696,24.5544348 169.903304,25.7206957 C168.960696,34.6013913 161.057739,39.2090435 155.800696,39.6577391 C153.622261,39.8233043 151.594435,39.8747826 149.709217,39.8417391" id="Fill-35" fill="#FF6600"></path>
                            <path d="M149.709217,14.4309565 C147.57913,14.2201739 145.86887,12.3234783 144.437913,10.8946087 C141.188522,7.64556522 136.150609,12.5488696 139.401391,15.9325217 C144.01913,20.717913 144.01913,21.7067826 139.401391,26.4984348 C136.150609,29.8733913 141.188522,34.7937391 144.437913,31.5446957 C149.057043,26.9266087 150.377043,26.9224348 155.00487,31.5446957 C158.272696,34.8142609 163.329043,29.7805217 160.041043,26.4984348 C155.343652,21.8017391 155.520348,20.6187826 160.041043,15.9325217 C163.269217,12.5697391 158.342609,7.67652174 155.00487,10.8946087 C153.912696,11.9429565 151.454957,14.6069565 149.709217,14.4309565" id="Fill-37" fill="#FFFFFF"></path>
                        </g>
                    </g>
                </g>
            </g>
        </g>
    </g>
</svg>
