<?xml version="1.0" encoding="UTF-8"?>
<svg width="20px" height="20px" viewBox="0 0 20 20" version="1.1" xmlns="http://www.w3.org/2000/svg" xmlns:xlink="http://www.w3.org/1999/xlink">
    <!-- Generator: Sketch 39.1 (31720) - http://www.bohemiancoding.com/sketch -->
    <title>Fill 37</title>
    <desc>Created with Sketch.</desc>
    <defs></defs>
    <g id="Mobile" stroke="none" stroke-width="1" fill="none" fill-rule="evenodd">
        <g id="Mobile---Menu-Hamburguesa" transform="translate(-338.000000, -101.000000)" fill="#000000">
            <g id="HEADER">
                <g id="Group-2" transform="translate(0.000000, 60.000000)">
                    <g id="Menú" transform="translate(16.000000, 30.000000)">
                        <path d="M331.981788,15.0444232 C330.109824,14.8591831 328.606812,13.1923281 327.349258,11.9366082 C324.493626,9.08128203 320.066205,13.3904066 322.923059,16.3640296 C326.981223,20.5695297 326.981223,21.4385686 322.923059,25.6495709 C320.066205,28.615552 324.493626,32.9396547 327.349258,30.0843286 C331.408644,26.0258589 332.568688,26.0221908 336.635716,30.0843286 C339.507549,32.9576896 343.951171,28.5339363 341.061609,25.6495709 C336.933445,21.5220183 337.088729,20.4824119 341.061609,16.3640296 C343.898595,13.4087472 339.56899,9.10848726 336.635716,11.9366082 C335.675891,12.8579177 333.51598,15.1990956 331.981788,15.0444232" id="Fill-37"></path>
                    </g>
                </g>
            </g>
        </g>
    </g>
</svg>
